<svg xmlns="http://www.w3.org/2000/svg" viewBox="0 0 445 142.3"><g fill="#0033A0"><path d="M134.2 4.8h14.4v63.9h-14.4zM162.5 21.9c2.3-.7 5.4-1.3 9-1.9 3.7-.6 7.6-.9 11.6-.9 4.1 0 7.6.5 10.3 1.6s4.9 2.6 6.5 4.6 2.7 4.3 3.4 7 1 5.7 1 9v27.4h-13.7V43c0-4.4-.6-7.6-1.8-9.4-1.2-1.9-3.4-2.8-6.5-2.8-1 0-2 0-3.1.1s-2.1.2-3 .3v37.4h-13.7zM216.3 8.2 230 6v14.3h16.5v11.4H230v17.1q0 4.35 1.5 6.9c1 1.7 3 2.6 6.1 2.6 1.5 0 3-.1 4.6-.4s3-.7 4.3-1.2l1.9 10.7c-1.7.7-3.5 1.3-5.5 1.8s-4.5.7-7.5.7q-5.7 0-9.3-1.5c-2.5-1-4.4-2.4-5.9-4.2s-2.5-4-3.1-6.6-.9-5.4-.9-8.6zM253.6 44.9c0-4.3.7-8.1 2-11.3s3.1-5.9 5.2-8.1 4.6-3.8 7.4-4.9 5.7-1.7 8.6-1.7c6.9 0 12.3 2.1 16.3 6.3q6 6.3 6 18.6c0 .8 0 1.7-.1 2.6-.1 1-.1 1.8-.2 2.5h-31.2c.3 2.8 1.6 5.1 4 6.7 2.3 1.7 5.5 2.5 9.4 2.5 2.5 0 5-.2 7.4-.7s4.4-1 6-1.7l1.9 11.3c-.7.4-1.7.8-2.9 1.1-1.2.4-2.6.7-4.1 1s-3.1.5-4.8.7-3.5.3-5.2.3c-4.4 0-8.2-.6-11.4-1.9s-5.9-3.1-8-5.3c-2.1-2.3-3.7-4.9-4.7-8-1.1-3.1-1.6-6.5-1.6-10m32.3-5.3c-.1-1.2-.3-2.3-.6-3.4s-.9-2.1-1.6-2.9q-1.05-1.35-2.7-2.1c-1.1-.6-2.4-.8-4-.8-1.5 0-2.9.3-4 .8s-2 1.2-2.8 2.1c-.7.9-1.3 1.9-1.7 3s-.7 2.3-.9 3.5h18.3zM351.7 62.7q0 11.85-6 17.7c-4 3.8-10.3 5.8-18.7 5.8-3 0-5.9-.3-8.9-.8s-5.7-1.2-8.2-2.1l2.4-11.5c2.1.9 4.4 1.5 6.8 2s5.1.7 8.1.7c3.9 0 6.7-.9 8.4-2.6q2.4-2.55 2.4-6.6v-1.7c-1.5.7-3 1.2-4.6 1.5s-3.3.5-5.1.5c-6.7 0-11.8-2-15.4-6s-5.4-9.5-5.4-16.6c0-3.6.6-6.8 1.7-9.7q1.65-4.35 4.8-7.5c2.1-2.1 4.7-3.7 7.8-4.9 3.1-1.1 6.5-1.7 10.4-1.7 1.7 0 3.4.1 5.1.2 1.8.2 3.5.4 5.2.6 1.7.3 3.4.5 4.9.9 1.6.3 3 .7 4.2 1v40.8zM321.5 43c0 7.7 3.1 11.5 9.3 11.5 1.4 0 2.7-.2 4-.6 1.2-.4 2.3-.8 3.1-1.3v-22q-1.05-.15-2.4-.3c-.9-.1-2-.1-3.2-.1q-5.4 0-8.1 3.6c-1.8 2.4-2.7 5.5-2.7 9.2M393.9 32.4c-1.2-.3-2.7-.6-4.3-1-1.7-.4-3.4-.5-5.3-.5-.9 0-1.9.1-3.1.2-1.2.2-2.1.3-2.7.5v37.1h-13.8V22.8q3.75-1.35 8.7-2.4c3.4-.8 7.1-1.2 11.2-1.2.8 0 1.6 0 2.7.1 1 .1 2.1.2 3.1.4 1.1.1 2.1.3 3.1.6 1 .2 1.9.5 2.7.8zM420.1 19c4.1 0 7.4.5 10.1 1.4s4.9 2.2 6.5 4c1.6 1.7 2.8 3.8 3.5 6.3s1 5.2 1 8.2v28.6c-2 .5-4.7.9-8.2 1.5s-7.7.9-12.7.9c-3.1 0-6-.3-8.5-.8q-3.9-.9-6.6-2.7c-1.8-1.3-3.3-2.9-4.3-5q-1.5-3-1.5-7.5c0-2.8.6-5.2 1.7-7.2s2.7-3.5 4.6-4.7 4.1-2 6.5-2.5c2.5-.5 5-.8 7.7-.8 1.8 0 3.4.1 4.8.2s2.5.4 3.4.6v-1.3c0-2.3-.7-4.2-2.1-5.6s-3.9-2.1-7.4-2.1c-2.3 0-4.7.2-6.9.5-2.3.3-4.2.8-5.9 1.4L404 21.3c.8-.2 1.8-.5 3-.8s2.5-.5 3.9-.7 2.9-.4 4.5-.5c1.5-.3 3.1-.3 4.7-.3m1.1 40.2c1.3 0 2.6 0 3.9-.1q1.8-.15 3-.3V48.4c-.6-.1-1.4-.3-2.5-.4s-2.1-.2-3.1-.2c-1.3 0-2.5.1-3.6.2s-2.2.4-3 .9c-.9.4-1.5 1-2 1.8-.5.7-.7 1.7-.7 2.8 0 2.2.7 3.6 2.2 4.5 1.3.8 3.3 1.2 5.8 1.2"></path></g><g fill="#00AEC7"><path d="M167.3 130.8c-3.7 0-6.3-2.5-6.3-6.1v-12.1h1.9v12c0 2.7 1.7 4.6 4.4 4.6s4.4-1.8 4.4-4.6v-12h1.9v12.1c0 3.6-2.6 6.1-6.3 6.1M186.3 130.6v-7.7c0-2.2-1.2-3.3-3.1-3.3s-3.1 1.1-3.1 3.3v7.7h-1.8v-12.5h1.8v1.4c.9-1 2.1-1.5 3.5-1.5 1.3 0 2.4.4 3.2 1.2.9.9 1.3 2 1.3 3.5v8zM199.7 130.6v-1.2c-1 1-1.9 1.4-3.6 1.4s-2.8-.3-3.5-1.1c-.6-.6-.9-1.6-.9-2.5 0-2.2 1.5-3.6 4.3-3.6h3.8v-1.2c0-1.8-.9-2.8-3.2-2.8-1.6 0-2.4.4-3.2 1.4l-1.2-1.1c1.1-1.4 2.4-1.9 4.4-1.9 3.4 0 5 1.4 5 4.2v8.5zm0-5.7h-3.5c-1.9 0-2.8.8-2.8 2.2s.9 2.1 2.9 2.1c1.1 0 2-.1 2.8-.8.4-.4.6-1.1.6-2.2zM213.5 124.9c0 2.7 1.3 4.3 3.7 4.3 1.5 0 2.3-.4 3.3-1.4l1.2 1.1c-1.3 1.3-2.4 1.9-4.6 1.9-3.3 0-5.5-2-5.5-6.4 0-4 2-6.4 5.1-6.4 3.2 0 5.1 2.3 5.1 6.1v.8zm6.2-3.5c-.5-1.1-1.6-1.9-2.9-1.9s-2.4.7-2.9 1.9c-.3.7-.3 1.1-.4 2.1h6.6c-.1-1-.1-1.4-.4-2.1M241.9 130.6v-7.7c0-2.2-1.2-3.3-3.1-3.3-1.8 0-3.1 1.1-3.1 3.1v7.9h-1.8v-7.7c0-2.2-1.2-3.3-3.1-3.3s-3.1 1.1-3.1 3.3v7.7h-1.8v-12.5h1.8v1.4c.9-1 2.1-1.5 3.5-1.5 1.7 0 3.1.7 3.8 2.1 1-1.4 2.4-2.1 4.1-2.1 1.3 0 2.5.4 3.2 1.2.9.9 1.3 2 1.3 3.5v8zM256.6 129.7c-.7.7-1.8 1.1-3.1 1.1-1.4 0-2.5-.3-3.5-1.6v7.1h-1.8v-18.1h1.8v1.5c1-1.3 2.2-1.6 3.5-1.6s2.4.4 3.1 1.1c1.3 1.3 1.5 3.4 1.5 5.3 0 1.8-.2 3.9-1.5 5.2m-3.5-10.1c-2.7 0-3.2 2.3-3.2 4.8 0 2.4.4 4.8 3.2 4.8 2.7 0 3.1-2.3 3.1-4.8.1-2.5-.3-4.8-3.1-4.8M269 120.5c-.7-.7-1.2-.9-2.2-.9-1.8 0-3 1.5-3 3.4v7.7H262v-12.5h1.8v1.5c.7-1 2.1-1.7 3.5-1.7 1.2 0 2.1.3 3 1.2zM273 124.9c0 2.7 1.3 4.3 3.7 4.3 1.4 0 2.3-.4 3.3-1.4l1.2 1.1c-1.3 1.3-2.4 1.9-4.6 1.9-3.3 0-5.5-2-5.5-6.4 0-4 2-6.4 5.1-6.4 3.2 0 5.1 2.3 5.1 6.1v.8zm6.2-3.5c-.5-1.1-1.6-1.9-2.9-1.9s-2.4.7-2.9 1.9c-.3.7-.3 1.1-.4 2.1h6.6c0-1-.1-1.4-.4-2.1M289.3 130.8c-2.1 0-3.8-.5-5.1-1.8l1.2-1.2c1 1 2.3 1.4 3.9 1.4 2.1 0 3.3-.7 3.3-2.2 0-1.1-.6-1.7-2.1-1.8l-2.1-.2c-2.4-.2-3.7-1.3-3.7-3.4 0-2.3 1.9-3.7 4.6-3.7 1.8 0 3.4.4 4.5 1.3l-1.2 1.2c-.9-.7-2-1-3.3-1-1.8 0-2.8.8-2.8 2.1 0 1.1.6 1.7 2.2 1.8l2 .2c2.2.2 3.7 1 3.7 3.4 0 2.5-2.1 3.9-5.1 3.9M305.1 130.6v-1.2c-1 1-1.9 1.4-3.6 1.4s-2.8-.3-3.5-1.1c-.6-.6-.9-1.6-.9-2.5 0-2.2 1.5-3.6 4.3-3.6h3.8v-1.2c0-1.8-.9-2.8-3.2-2.8-1.6 0-2.4.4-3.1 1.4l-1.2-1.1c1.1-1.4 2.4-1.9 4.4-1.9 3.4 0 5 1.4 5 4.2v8.5zm0-5.7h-3.5c-1.9 0-2.8.8-2.8 2.2s.9 2.1 2.9 2.1c1.1 0 2-.1 2.8-.8.4-.4.6-1.1.6-2.2z"></path></g><path fill="#0033A0" d="M362.7 112.7v12.6c0 4.3-4.3 6.5-8.8 6.5-4.6 0-8.5-2.1-8.5-6.5v-17.2c1.9 0 4 .6 4.1 4.1v12.1c0 2.4 1.8 3.5 4.5 3.5 2.6 0 4.5-1.2 4.5-3.5v-16.2c2.9 0 4.2 1.2 4.2 4.6m14-4.6c-5.1 0-8.5 2.9-8.5 8.9v14.4h4.1v-14.6c0-3.1 1.7-5 4.8-5h1.2c3.6 0 4.2-1.8 4.2-3.8h-5.8zm17.4 0h9v23.3c-2.6 0-3.8-.7-4.1-3.1 0 0-1.8 3.6-6.9 3.6-6.2 0-9.9-4.9-9.7-12 .2-7.8 5.3-11.8 10.7-11.8zm4.7 3.8h-5.5c-3.6 0-6.2 2.5-6.4 8.1-.2 5.8 2.4 8.2 6 8.2 4 0 5.9-3.1 5.9-6.3zm-63 6.7-5-1.4c-1.4-.4-2.6-1-2.6-2.7s1.1-2.6 3.3-2.6h4.4c2 0 4.3-.6 4.3-3.8h-8.3c-5.1 0-8.1 2.6-8.1 6.3 0 3.5 2.2 5.4 6.1 6.5l4.3 1.2c1.8.5 2.4 1.6 2.4 2.8 0 1.7-1.1 2.8-3.8 2.8l-8.3.1v3.8h8.5c5.2 0 8.1-2.8 8.1-6.4 0-3.8-1.5-5.6-5.3-6.6"></path><path fill="#00AEC7" d="M419.5 136.1c-2.4.8-5 1.5-7.8 2-.1 0-.1 0-.1.1v.1c.5.4 1.1.6 1.8.7q1.35.15 3.3-.3c1.1-.3 2.2-.8 3.4-1.4 1.1-.6 2.2-1.2 3.2-1.8.9-.7 1.7-1.3 2.1-1.9 0-.1 0-.1-.1-.1-1.5.9-3.5 1.8-5.8 2.6m5.5-4v-.1c-2.3.9-7.3 1.8-10.4 2.2-2.7.4-5 .5-6.3.5h-.6c-.1 0-.1.1-.1.1s0 .1.1.1c.2.3 1 1 2.5 1.2 1.7.3 4.3-.2 7.6-1.1 2.6-.7 5.7-2 7.2-2.9m-.3 4c-2 1.9-4.9 3-5.8 3.3-.1 0-.1.1-.1.1 0 .1 0 .1.1.1.2.1 1.3.7 3.5-.4 1.2-.6 1.9-1.7 2.5-3 0-.1-.1-.2-.2-.1.1-.1 0-.1 0 0m-11.1-28.4c.6.6 1.3 1.1 2.2 1.4h.1c.3.1 15.5 4.2 19.6 5.3 1.8.5 3.2.9 3.8 1.1.1 0 .1 0 .1-.1 0 0 0-.1-.1-.1-2.6-1-18.3-7.2-24.2-9.5l-2.5-1h-.1v.1c0 .2.1 1.3.7 2.1.1.3.2.5.4.7m.7-6c.3.4.6.6 1.1 1l.6.3 1.4.7c.8.4 12.6 6 14.3 6.8 2 1 4.1 2 5 2.4.1 0 .1 0 .1-.1-2.2-1.4-10.6-6.7-16.6-10.5l-4.3-2.6-.8-.5-1.5-.9h-.1l-.1.1c0 .2 0 1.3.3 2.2.1.3.3.7.6 1.1m26.8 15.2c-2-.4-26.7-4.9-26.7-4.9-.1 0-.1 0-.1.1v.1c.4 1.3 1.4 2.6 3 3.1.2.1.4.1.5.1 0 0 20.9 1.5 23.2 1.6.2 0 .2 0 .1-.1q.15 0 0 0m-5.1 1.4h-16.1s-.1 0-.1.1v.1c.1.2.4.8.7 1.2.7.7 1.4 1.1 2.2 1.2h.6c.1 0 16-2.2 16.9-2.3 0 0 .1 0 .1-.1 0 0 0-.1-.1-.1-.8-.1-2.3-.1-4.2-.1m2.9 1.6c-1 .3-4.7 1.2-8 2.1-2.9.7-6.1 1.6-6.1 1.6-.3.1-.2.2-.2.3.1.1.3.4.5.8.5.9 1.2.7 1.8.5.1 0 11.5-4.7 12.1-5.1.1 0 0-.1 0-.1 0-.1-.1-.1-.1-.1m-5.1 7.9c-1.5 1.3-3.8 3.2-6.2 5.3-.2.2-.3.5-.4.9-.1.7-.5 1.6-.5 1.6-.1.2 0 .3.2.1 1.8-2 5.9-6.5 7-7.7 0-.1 0-.2-.1-.2m-2.6-1.8c-1.4.8-3.1 1.8-4 2.3-.1.1-.2.1-.1.3 0 0 .1.3.1.6.1 1.3.6 1.2 1.4.6l.1-.1c2.8-2.3 7.9-6.5 9-7.5 0-.1 0-.1-.1-.1-1.1.7-3.9 2.4-6.4 3.9"></path><g fill="#0033A0"><path d="M36.9 68.7 32.7 57H10.3L6.1 68.7H2.2l17.7-48.2h3.2l17.7 48.2zM21.5 25.4 11.4 53.8h20.2zM52.9 23.8v19.8h21.8v3.2H52.9v21.9h-3.6V20.5h29.2v3.2H52.9zM105.9 48.3h-14v20.4h-3.6V20.5H106c8.3 0 14.5 5.1 14.5 13.9-.1 8.8-6.3 13.9-14.6 13.9m-.4-24.5H91.9V45h13.6c6.6 0 11.3-3.4 11.3-10.6s-4.7-10.6-11.3-10.6"></path></g></svg>